<svg width="164" height="38" viewBox="0 0 164 38" fill="none" xmlns="http://www.w3.org/2000/svg">
<g clip-path="url(#clip0_4408_45465)">
<path d="M14.0288 5.61222C17.1926 5.61222 20.245 6.73124 22.6588 8.76716C22.1725 9.52588 21.7448 10.3139 21.3728 11.1253C19.4101 9.33547 16.8762 8.35119 14.2222 8.35119C8.35168 8.35119 3.57385 13.1261 3.57385 18.9995C3.57385 24.8729 8.35168 29.6478 14.2222 29.6478C16.8879 29.6478 19.4101 28.6665 21.3728 26.8737C21.7419 27.6851 22.1725 28.4731 22.6588 29.2319C20.245 31.2678 17.1926 32.3868 14.0288 32.3868C6.64678 32.3868 0.641536 26.3816 0.641536 18.9995C0.641536 11.6175 6.64678 5.61222 14.0288 5.61222ZM38.6855 0.641047C45.2444 0.641047 51.0094 4.10065 54.2552 9.2886C54.3167 9.38819 54.3811 9.48779 54.4426 9.59032C54.5276 9.73093 54.6096 9.87447 54.6887 10.018C54.7707 10.1645 54.8498 10.311 54.9289 10.4574C55.008 10.6097 55.0871 10.7621 55.1633 10.9173C55.2629 11.1224 55.3625 11.3274 55.4533 11.5354C55.4943 11.6292 55.5353 11.7229 55.5763 11.8196C55.6935 12.0979 55.8077 12.3762 55.9132 12.6603C55.9249 12.6896 55.9337 12.7189 55.9454 12.7482C56.0333 12.9913 56.1183 13.2374 56.1944 13.4835C56.2032 13.5157 56.2149 13.5479 56.2237 13.5801C56.3087 13.8555 56.3878 14.1309 56.461 14.4121C56.4639 14.4238 56.4669 14.4355 56.4698 14.4472C56.5342 14.6992 56.5928 14.954 56.6455 15.2089C56.6602 15.2792 56.6748 15.3495 56.6895 15.4198C56.7334 15.6424 56.7744 15.8651 56.8096 16.0906C56.8184 16.1434 56.8272 16.1961 56.836 16.2517C56.877 16.5212 56.9121 16.7937 56.9414 17.069C56.9473 17.1335 56.9531 17.2009 56.959 17.2682C56.9795 17.485 56.9971 17.7018 57.0088 17.9215C57.0146 18.0006 57.0176 18.0797 57.0234 18.1617C57.0352 18.44 57.0439 18.7212 57.0439 19.0024C57.0439 19.2837 57.0352 19.5649 57.0234 19.8432C57.0205 19.9223 57.0146 20.0014 57.0088 20.0834C56.9971 20.3031 56.9795 20.5199 56.959 20.7366C56.9531 20.8011 56.9473 20.8685 56.9414 20.9358C56.9121 21.2112 56.877 21.4836 56.836 21.7531C56.8272 21.8059 56.8184 21.8586 56.8096 21.9142C56.7744 22.1398 56.7334 22.3624 56.6895 22.5851C56.6748 22.6554 56.6602 22.7257 56.6455 22.796C56.5928 23.0509 56.5342 23.3057 56.4698 23.5576C56.4669 23.5694 56.4639 23.5811 56.461 23.5928C56.3878 23.8711 56.3087 24.1494 56.2237 24.4247C56.2149 24.457 56.2032 24.4892 56.1944 24.5214C56.1153 24.7704 56.0333 25.0135 55.9454 25.2596C55.9337 25.2889 55.9249 25.3182 55.9132 25.3475C55.8077 25.6316 55.6935 25.9099 55.5763 26.1882C55.5353 26.282 55.4943 26.3757 55.4533 26.4694C55.3595 26.6774 55.2629 26.8854 55.1603 27.0905C55.0842 27.2428 55.008 27.3951 54.926 27.5445C54.8469 27.6939 54.7678 27.8404 54.6858 27.9869C54.6067 28.1304 54.5247 28.271 54.4397 28.4116C54.3782 28.5142 54.3138 28.6138 54.2522 28.7163C51.0035 33.9042 45.2414 37.3638 38.6825 37.3638C28.5586 37.3638 20.3241 29.1264 20.3241 19.0054C20.3241 8.88434 28.5615 0.641047 38.6855 0.641047ZM63.3245 5.61222C70.7066 5.61222 76.7118 11.6175 76.7118 18.9995C76.7118 26.3816 70.7066 32.3868 63.3245 32.3868C60.1608 32.3868 57.1084 31.2678 54.6946 29.2319C55.1779 28.479 55.6027 27.6969 55.9718 26.8913C57.9345 28.6723 60.4479 29.6478 63.1078 29.6478C68.9783 29.6478 73.7561 24.87 73.7561 18.9995C73.7561 13.129 68.9812 8.35119 63.1078 8.35119C60.4596 8.35119 57.9345 9.32961 55.9747 11.1107C55.6056 10.3051 55.1809 9.52002 54.6975 8.76716C57.1113 6.72831 60.1637 5.61222 63.3275 5.61222M57.665 18.1324C57.662 18.0533 57.6562 17.9742 57.6533 17.8951C57.6386 17.6549 57.621 17.4176 57.5976 17.1774C57.5917 17.1247 57.5888 17.0749 57.583 17.0222C57.5537 16.741 57.5185 16.4597 57.4746 16.1785C57.4658 16.1111 57.4541 16.0467 57.4423 15.9793C57.4072 15.7508 57.3632 15.5223 57.3193 15.2938C57.3076 15.2323 57.2959 15.1679 57.2812 15.1064C57.2226 14.8222 57.1582 14.541 57.085 14.2598C57.085 14.2539 57.082 14.248 57.0791 14.2422C57.0088 13.9668 56.9297 13.6915 56.8447 13.419C56.8301 13.3751 56.8184 13.3311 56.8037 13.2872C56.6221 12.7072 56.4112 12.136 56.171 11.5735L56.2677 11.679C58.1307 9.93599 60.5563 8.97515 63.1019 8.97515C68.6267 8.97515 73.1233 13.4718 73.1233 18.9966C73.1233 24.5214 68.6267 29.018 63.1019 29.018C60.527 29.018 58.1015 28.0455 56.2325 26.2761C56.4464 25.7605 56.6368 25.2362 56.8037 24.706C56.8184 24.662 56.8301 24.6181 56.8447 24.5741C56.9297 24.3017 57.0088 24.0293 57.0791 23.751C57.0791 23.7451 57.082 23.7393 57.085 23.7334C57.1582 23.4522 57.2226 23.171 57.2812 22.8868C57.2929 22.8253 57.3047 22.7608 57.3193 22.6993C57.3632 22.4708 57.4043 22.2423 57.4423 22.0138C57.4541 21.9465 57.4658 21.882 57.4746 21.8147C57.5156 21.5364 57.5537 21.2551 57.583 20.971C57.5888 20.9183 57.5917 20.8685 57.5976 20.8157C57.621 20.5784 57.6386 20.3382 57.6533 20.098C57.6562 20.0189 57.662 19.9398 57.665 19.8608C57.6796 19.5707 57.6884 19.2837 57.6884 18.9907C57.6884 18.6978 57.6796 18.4107 57.665 18.1207M19.6679 18.9995C19.6679 21.5129 20.16 23.9736 21.1092 26.2644C19.2402 28.0425 16.8059 29.0209 14.2222 29.0209C8.69735 29.0209 4.20074 24.5243 4.20074 18.9995C4.20074 13.4747 8.69735 8.97808 14.2222 8.97808C16.7678 8.97808 19.1933 9.93892 21.0564 11.6819L21.2 11.5296C20.1952 13.876 19.6679 16.4099 19.6679 18.9995ZM14.0288 33.0283C17.3273 33.0283 20.5086 31.8654 23.0308 29.7504C26.4611 34.7274 32.1969 37.9995 38.6855 37.9995C45.1741 37.9995 50.9039 34.7332 54.3343 29.7591C56.8565 31.8683 60.0319 33.0283 63.3245 33.0283C71.0611 33.0283 77.3534 26.736 77.3534 18.9995C77.3534 11.263 71.0611 4.97068 63.3245 4.97068C60.0319 4.97068 56.8565 6.13072 54.3343 8.23987C50.9039 3.26578 45.1711 -0.000488281 38.6855 -0.000488281C32.1998 -0.000488281 26.4611 3.27164 23.0308 8.24866C20.5086 6.13365 17.3273 4.97068 14.0288 4.97068C6.29232 4.97068 0 11.263 0 18.9995C0 26.736 6.29232 33.0283 14.0288 33.0283Z" fill="white"/>
<path d="M58.4209 16.1286C58.5762 16.3923 59.1415 16.6207 59.2323 16.6207C59.2323 16.6207 59.1884 16.3337 59.2763 16.1579C59.3935 15.9236 59.5487 15.7683 59.8827 15.5632C59.8827 15.5632 60.2957 15.2967 60.6062 15.3172C60.6062 15.3172 60.3631 15.4168 60.158 15.6892C60.4451 16.0905 61.0281 16.9898 61.5876 18.3169C61.4528 18.6215 61.2595 18.894 61.0163 19.1166C60.8406 19.2777 60.6443 19.4125 60.4275 19.515C60.2957 19.6351 60.1727 19.7728 60.0701 19.9192C59.786 20.3206 59.619 20.8098 59.619 21.34C59.619 21.7267 59.7069 22.0928 59.868 22.418L60.2254 22.1602C60.161 21.9405 60.1258 21.7062 60.1258 21.466C60.1258 20.9094 60.3104 20.3967 60.6238 19.9837C61.4177 20.0247 63.0991 19.3627 63.0845 17.4556C63.0845 17.4556 63.3042 18.3403 62.9702 19.2484C62.9878 19.2543 63.0025 19.2601 63.02 19.266C63.5473 19.4417 64.1889 19.4593 64.1889 19.4593C64.8509 19.4476 65.4661 19.2425 65.9787 18.894C66.1896 18.0239 66.6495 17.5845 66.881 17.4117C66.6613 17.6724 66.4152 18.2231 66.6056 18.9467C66.8253 19.7728 67.7451 20.177 68.4511 20.177C68.5009 20.177 68.5507 20.177 68.6005 20.1712C69.0604 20.5432 69.3563 21.1144 69.3563 21.753C69.3563 22.1807 69.2245 22.5762 68.9989 22.9014L69.4354 22.9277L69.453 22.9014C69.7225 22.5205 69.8836 22.0548 69.8894 21.5538C69.6639 21.1877 69.5321 20.757 69.5321 20.2942C69.5321 20.2825 69.5321 20.2737 69.5321 20.262C69.5321 20.0745 69.5584 19.8899 69.6024 19.7142L69.6112 19.6849C68.9345 19.6409 68.3691 19.1957 68.1465 18.5864C68.3515 18.3227 68.4746 17.9888 68.4746 17.6285C68.4746 17.1422 68.2256 16.6295 67.7891 16.3395C67.7891 16.3395 68.2021 16.4977 68.4072 16.7672C68.6562 17.0309 68.7411 17.5464 68.8349 17.9683C68.9931 18.6655 69.4178 19.3861 70.5368 19.3919C71.5943 19.3949 71.5211 18.0591 71.5211 18.0591C71.5211 18.0591 71.3278 18.4282 70.821 18.4428C70.0213 18.4663 69.7723 17.9888 69.2713 16.9488C68.7646 15.8943 67.4405 15.988 67.0333 16.0437C66.7638 16.0378 65.3401 16.3952 64.7747 16.3952C64.4115 16.3952 64.057 16.3571 63.7172 16.2839C63.4565 16.1638 63.3511 16.0495 63.3862 15.9323L63.8491 15.8972C63.5034 15.3611 62.6011 15.2557 62.6011 15.2557L63.1372 15.0301C62.9351 14.7987 62.235 14.5848 61.8307 14.5028C61.8307 14.5028 62.0094 14.3622 62.4605 14.3768C62.0592 14.1396 61.2448 13.832 60.5594 13.7353C60.3396 13.7031 60.161 13.7119 60.0233 13.7353L60.2195 14.0341C60.1229 13.9931 59.95 13.8701 59.8358 13.7763C59.7215 13.6826 59.4315 13.4101 59.3349 13.252C59.3349 13.252 59.3817 13.6474 59.4403 13.8671C59.4403 13.8671 59.4403 13.873 59.4345 13.8759C58.9189 14.6522 58.5849 15.5984 58.4238 16.1228" fill="white"/>
<path d="M67.3114 20.3618C67.3114 21.1996 66.8808 21.9349 66.2304 22.3655C66.2158 22.3714 65.4922 22.7844 65.4454 22.8313C65.3985 22.8782 66.1894 22.8957 66.1894 22.8957L66.5966 22.5266C67.3172 22.0403 67.7977 21.3109 68.0262 20.4966C67.9031 20.4819 67.5077 20.4263 67.3085 20.2798C67.3085 20.3091 67.3085 20.3354 67.3085 20.3647" fill="white"/>
<path d="M62.1792 19.978C62.2671 20.2739 62.352 20.5814 62.4311 20.9037C62.6948 21.9963 62.0825 22.9015 62.0825 22.9015H62.7328C62.7328 22.9015 63.2396 21.4398 62.7153 19.6089C62.5893 19.729 62.4048 19.8755 62.1821 19.978" fill="white"/>
<path d="M31.746 8.98996C32.6717 9.23896 33.6091 9.43815 34.5523 9.58755C33.486 10.856 32.6453 12.2943 32.0594 13.841C30.7881 13.5159 29.5372 13.097 28.3274 12.5902C29.2091 11.1694 30.375 9.94494 31.746 8.99289M37.5725 6.86615C36.6029 7.51648 35.73 8.28105 34.9566 9.12764C34.0719 8.99875 33.1931 8.82591 32.3231 8.60914C33.8786 7.65416 35.6597 7.03899 37.5696 6.86615M45.0776 8.62964C44.1637 8.85521 43.2409 9.0339 42.3123 9.15986C41.5272 8.29569 40.6396 7.51648 39.6524 6.85443C41.6297 7.00969 43.4782 7.63658 45.0806 8.62964M49.0616 12.6165C47.799 13.1438 46.5101 13.5686 45.1977 13.8967C44.6148 12.3412 43.774 10.8941 42.7078 9.61978C43.6979 9.47038 44.6792 9.26825 45.6489 9.01046C47.0169 9.96837 48.1798 11.1958 49.0587 12.6195M46.1234 18.7448C46.1058 17.702 45.974 16.6737 45.7397 15.6777C45.7631 15.5928 45.7748 15.4991 45.7397 15.3995C45.7192 15.3409 45.684 15.3057 45.6459 15.2735C45.5668 14.9747 45.476 14.6759 45.3794 14.383C46.721 14.0461 48.0392 13.6096 49.3282 13.0677C50.2744 14.755 50.828 16.6884 50.872 18.7477H46.1293L46.1234 18.7448ZM49.3633 24.8702C48.0685 24.3224 46.7474 23.88 45.3999 23.5373C45.8481 22.1693 46.0971 20.7309 46.1234 19.2575H50.8661C50.8222 21.2875 50.2861 23.1975 49.3633 24.8702ZM45.7455 28.9244C44.7671 28.6579 43.777 28.4499 42.781 28.2975C43.8326 27.0203 44.6617 25.5761 45.2329 24.0236C46.5482 24.3546 47.843 24.7852 49.1085 25.3184C48.2443 26.7362 47.0989 27.9636 45.7485 28.9274M39.6495 31.1449C40.6689 30.4624 41.5858 29.6539 42.3914 28.7545C43.3288 28.8864 44.2603 29.0738 45.1772 29.3082C43.5514 30.3364 41.6708 30.9867 39.6495 31.1449ZM32.1971 29.3082C33.0789 29.0856 33.9694 28.9069 34.8687 28.778C35.6626 29.6626 36.5678 30.4594 37.5725 31.1361C35.6098 30.9574 33.7819 30.31 32.1971 29.3111M28.2659 25.3154C29.4816 24.8057 30.7324 24.3868 32.0096 24.0587L32.0565 24.1466C32.4315 25.1397 32.909 26.0888 33.486 26.9764L33.4714 27.1024L33.5886 27.1346C33.861 27.5447 34.1627 27.9343 34.4762 28.3151C33.5183 28.4674 32.5662 28.6696 31.6288 28.9244C30.2784 27.9607 29.13 26.7333 28.2659 25.3125M31.1162 19.2575C31.1425 20.7427 31.3945 22.1927 31.8485 23.5724C30.5391 23.9093 29.2531 24.3429 28.0081 24.8672C27.0853 23.1975 26.5493 21.2875 26.5053 19.2575H31.1162ZM37.1741 15.1563C37.2239 15.8623 37.8098 16.4628 38.2287 17.037L37.8743 18.7448H31.6288C31.6552 17.2625 31.913 15.8125 32.3817 14.4415C33.9577 14.8165 35.563 15.0596 37.1741 15.1563ZM44.8843 14.5294C44.8843 14.5294 44.8696 14.5148 44.8579 14.5089C44.8638 14.5089 44.8696 14.506 44.8755 14.5031C44.8755 14.5119 44.8814 14.5206 44.8843 14.5294ZM45.6108 18.7448H44.1432C44.2926 18.3757 44.4947 18.0271 44.7466 17.7283C44.9107 17.535 45.0952 17.3563 45.2182 17.1395C45.3061 16.9872 45.3296 16.9227 45.4145 16.665C45.5288 17.3475 45.5961 18.0447 45.6108 18.7477M42.4412 22.9543C42.5408 22.9485 42.6492 22.9397 42.7283 22.8811C42.8425 22.7962 42.8659 22.6263 42.8308 22.4886C42.7956 22.3509 42.7136 22.2279 42.658 22.096C42.4763 21.6801 42.5379 21.2026 42.6052 20.7514C42.6228 20.6401 42.6374 20.5288 42.655 20.4204C42.7048 20.0748 42.8894 19.7672 43.0827 19.4742C43.1501 19.3746 43.3317 19.3248 43.3669 19.442C43.4049 19.568 43.1911 19.7232 43.2995 19.8023C43.3229 19.8199 43.3522 19.8199 43.3786 19.8228C43.5602 19.8345 43.7828 19.8258 43.8737 19.6676C43.9059 19.609 43.9147 19.5416 43.9264 19.4742C43.9381 19.401 43.9615 19.3307 43.9791 19.2604H44.3775C44.357 19.2926 44.3394 19.316 44.3394 19.316C44.2633 19.401 44.3043 19.5152 44.3043 19.5152C44.3218 19.5973 44.2105 19.6324 44.2105 19.6324C44.1754 19.6471 44.0787 19.7496 44.0787 19.7496C44.0172 19.7994 44.0318 19.9195 44.0318 19.9195C44.0406 19.9839 44.0641 20.1216 44.0641 20.1216C44.0758 20.2476 44.1168 20.148 44.1168 20.148C44.1285 20.1158 44.2486 20.0337 44.2486 20.0337C44.3013 19.9986 44.3306 19.8931 44.3306 19.8931C44.3336 19.8316 44.3541 19.7584 44.3541 19.7584C44.3834 19.732 44.398 19.6969 44.398 19.6969C44.3922 19.6559 44.4097 19.609 44.4097 19.609C44.4302 19.5914 44.442 19.5445 44.442 19.5445C44.4888 19.4772 44.6001 19.4508 44.6001 19.4508C44.6587 19.4537 44.6206 19.4186 44.6206 19.4186C44.6119 19.3951 44.5884 19.3219 44.5884 19.3219C44.5884 19.2926 44.5679 19.275 44.5562 19.2604H45.6137C45.5873 20.6899 45.3442 22.0872 44.9077 23.4143C44.0934 23.2238 43.2731 23.0715 42.4441 22.9573M37.3558 21.2436L32.8621 23.3264C32.6893 23.3645 32.5164 23.4055 32.3436 23.4465C31.8983 22.1107 31.6522 20.6987 31.6259 19.2575H37.7659L37.3528 21.2436H37.3558ZM38.8585 27.9812C37.5872 27.9753 36.3188 28.0573 35.065 28.2272C35.0093 28.1628 34.9566 28.0925 34.9009 28.028C35.0269 27.9958 35.188 27.9841 35.2847 27.9489C35.563 27.8435 35.8296 27.656 36.0903 27.5154C36.2045 27.4539 36.3217 27.3924 36.4506 27.3572C36.8636 27.2488 37.3148 27.4656 37.7278 27.3514C38.1496 27.2342 38.4221 26.7391 38.2961 26.3202C38.2815 26.2733 38.2639 26.2265 38.2668 26.1767C38.2727 26.0859 38.3459 26.0156 38.4016 25.9423C38.4806 25.8369 38.5275 25.7109 38.6125 25.6084C38.9406 25.2129 39.5821 25.4004 40.0654 25.2246C40.3935 25.1045 40.6455 24.7911 40.6894 24.4425C40.707 24.3106 40.6953 24.1759 40.7128 24.047C40.7539 23.7541 40.9384 23.5021 41.1757 23.3264C42.3738 23.4377 43.5631 23.6281 44.732 23.8976C44.1461 25.4736 43.2878 26.9383 42.1893 28.2126C41.0849 28.0691 39.9746 27.99 38.8615 27.9812M38.6183 31.183C37.4466 30.5004 36.4008 29.6568 35.4927 28.693C36.6088 28.5583 37.7337 28.488 38.8556 28.4938C39.8282 28.4997 40.7978 28.5641 41.7616 28.6754C40.8476 29.6451 39.7959 30.4946 38.6183 31.183ZM38.7384 9.91564C38.7941 9.91564 38.8527 9.91564 38.9083 9.91564C39.9805 9.90978 41.0497 9.83362 42.1131 9.69887C43.2263 10.9732 44.0992 12.4378 44.6968 14.0197C44.5064 14.0637 44.3101 14.0988 44.1197 14.1398C43.8912 13.9084 43.8531 13.5803 43.5075 13.3577C42.9128 12.971 42.1687 13.0354 41.4979 12.9476C40.7275 12.8509 40.1328 12.4847 39.629 11.8988C39.3712 11.6 39.2247 11.4682 39.1515 11.2749C39.0607 11.0259 39.0372 10.7095 38.9025 10.689C38.8585 10.6831 38.8263 10.7036 38.8263 10.7036C38.7414 10.7652 38.8263 10.9849 38.5949 11.0083C38.63 11.1255 38.5451 11.2632 38.425 11.2807C38.3459 11.1958 38.2668 11.1108 38.1848 11.0259C38.2404 11.0171 38.2961 11.0112 38.3518 11.0024C38.2317 11.0171 38.1408 10.7066 37.968 10.7915C37.7512 10.897 37.9299 11.7582 37.9387 11.934C37.9475 12.0805 37.9563 12.2299 37.9387 12.3763C38.0325 12.3763 38.1291 12.3705 38.2199 12.4027C38.3957 12.4613 38.4689 12.6517 38.2727 12.7454C38.0588 12.848 37.6048 12.6839 37.5286 13.0267C37.4993 13.1555 37.5872 13.2786 37.6253 13.4045C37.7424 13.7824 37.4378 14.1457 37.2825 14.5119C37.262 14.5587 37.2474 14.6056 37.2327 14.6525C35.6626 14.5617 34.0954 14.3332 32.5574 13.9699C33.1609 12.4027 34.0309 10.9468 35.1441 9.68422C36.3334 9.84534 37.5315 9.92443 38.7326 9.92443M38.6183 6.81635C39.7608 7.48425 40.7861 8.30155 41.6795 9.23603C40.7568 9.33855 39.8311 9.39714 38.9025 9.403C38.7912 9.403 38.6798 9.40007 38.5656 9.40007C38.5597 9.38835 38.5568 9.37664 38.5568 9.37664C38.5656 9.35027 38.5334 9.26239 38.5334 9.26239C38.4982 9.15986 38.589 9.17744 38.589 9.17744C38.6886 9.18623 38.6798 9.08663 38.6798 9.08663C38.6535 8.93723 38.6945 8.82591 38.6945 8.82591C38.7531 8.75268 38.7209 8.69995 38.7209 8.69995C38.7004 8.62964 38.7121 8.55934 38.7121 8.55934C38.8029 8.36893 38.6359 8.40115 38.6359 8.40115C38.5656 8.4363 38.5597 8.38357 38.5597 8.38357C38.5129 8.37186 38.5129 8.32499 38.5129 8.32499C38.5627 8.24589 38.6593 8.31034 38.6593 8.31034C38.7765 8.37772 38.7502 8.25761 38.7502 8.25761C38.7384 8.21953 38.6681 8.11993 38.6681 8.11993C38.633 8.02326 38.7091 8.00568 38.7091 8.00568H38.7941C38.8644 8.02912 38.8146 7.88851 38.8146 7.88851C38.8029 7.86214 38.8029 7.84457 38.8058 7.83578C38.7707 7.88265 38.7648 7.92952 38.7648 7.92952C38.7736 8.03205 38.7414 7.97639 38.7414 7.97639C38.7384 7.93245 38.6857 7.92366 38.6857 7.92366C38.633 7.95588 38.6183 7.90316 38.6183 7.90316C38.5802 7.8475 38.5246 7.87679 38.5246 7.87679C38.4806 7.92073 38.589 7.92952 38.589 7.92952C38.6623 7.9676 38.5949 8.00275 38.5949 8.00275C38.4894 8.03791 38.6008 8.06427 38.6008 8.06427C38.6506 8.14629 38.5715 8.12286 38.5715 8.12286C38.4279 8.0467 38.5129 8.13751 38.5129 8.13751C38.5861 8.22832 38.5129 8.19902 38.5129 8.19902C38.4016 8.26054 38.4221 8.33378 38.4221 8.33378C38.4484 8.42166 38.3986 8.41287 38.3986 8.41287C38.2932 8.45974 38.3342 8.34549 38.3342 8.34549C38.3811 8.24296 38.3283 8.15508 38.3283 8.15508C38.2317 8.09064 38.1584 8.3162 38.1584 8.3162C38.0823 8.42166 38.1672 8.40408 38.1672 8.40408C38.1994 8.46853 38.176 8.52711 38.176 8.52711C38.1584 8.55641 38.2024 8.64136 38.2024 8.64136C38.2697 8.75268 38.2609 9.09834 38.2609 9.09834C38.2522 9.22724 38.302 9.34734 38.3254 9.39714C37.4026 9.3825 36.4828 9.32098 35.5747 9.20966C36.4623 8.28691 37.4788 7.47839 38.6125 6.81635M28.0667 13.0325C29.3029 13.5539 30.5801 13.9904 31.8807 14.3244C31.4033 15.7334 31.1425 17.2215 31.1162 18.7448H26.5053C26.5493 16.6737 27.1088 14.7286 28.0667 13.0325ZM25.9868 18.9997C25.9868 26.0038 31.6845 31.7015 38.6857 31.7015C45.6869 31.7015 51.3875 26.0038 51.3875 18.9997C51.3875 14.629 49.17 10.771 45.8012 8.48317L45.7895 8.44216C45.7895 8.44216 45.766 8.44802 45.7543 8.45095C43.733 7.09172 41.3017 6.29785 38.6886 6.29785C31.6845 6.29785 25.9897 11.9955 25.9897 18.9997" fill="white"/>
<path d="M26.2915 11.0523C26.6723 11.3569 27.2347 11.231 27.6038 10.7652L28.2395 9.97135C28.5852 9.5378 28.5266 9.06324 28.1399 8.75272L28.0989 8.7205L28.1311 8.68242C28.1663 8.70585 28.1956 8.71171 28.219 8.69121L28.884 8.07018L27.6565 6.75781L27.305 7.0859L28.2366 8.0819L27.9876 8.31332C27.9378 8.28695 27.8997 8.27816 27.8763 8.30453L27.4193 8.87869C27.3314 8.98708 27.3021 9.01051 27.1761 9.04566L27.2787 9.48214C27.5071 9.41477 27.6331 9.30638 27.7591 9.14819L27.8001 9.09546L27.8382 9.12769C28.0549 9.30052 28.0754 9.488 27.9026 9.70185L27.2699 10.4957C27.056 10.7623 26.7865 10.8267 26.5902 10.6715C26.517 10.6129 26.3354 10.4313 26.1303 10.2086L25.7817 10.5367C25.9985 10.774 26.1919 10.9703 26.2944 11.0523" fill="white"/>
<path d="M28.3864 10.0834L28.0869 10.459L28.4694 10.764L28.7689 10.3884L28.3864 10.0834Z" fill="white"/>
<path d="M27.9479 10.6361L27.6484 11.0117L28.031 11.3167L28.3304 10.941L27.9479 10.6361Z" fill="white"/>
<path d="M29.0253 8.22716L28.6743 8.55518L29.0083 8.91261L29.3593 8.5846L29.0253 8.22716Z" fill="white"/>
<path d="M30.5886 5.2341C30.7087 5.10228 30.8464 4.99389 30.9812 4.92066C31.1159 4.84742 31.2799 4.78883 31.4557 4.75661C31.5348 4.96753 31.4733 5.2839 31.3297 5.55633C31.0222 5.5329 30.7234 5.41279 30.5886 5.2341ZM29.3876 8.22207C29.3641 8.23965 29.329 8.26602 29.2645 8.30703L29.4901 8.6732C29.5458 8.63805 29.6073 8.59704 29.6571 8.55895C29.9588 8.31582 29.9852 7.91742 29.7069 7.57175L29.6131 7.45458L29.909 7.2173C29.909 7.2173 29.9149 7.2173 29.9178 7.2173L30.6531 6.70172C30.6706 6.69001 30.6736 6.6695 30.6706 6.64899L31.0954 6.41464C31.2917 6.30626 31.4499 6.16565 31.5758 6.00453C31.7809 5.98695 31.9859 5.92837 32.1793 5.81998L32.5835 5.59735C32.6011 5.61199 32.6187 5.62078 32.6392 5.61199L33.4682 5.26632C33.4682 5.26632 33.4711 5.26047 33.4741 5.26047L34.3851 4.95581L33.5883 2.56836L33.1313 2.72069L33.7904 4.69802L33.2836 4.86793C33.2836 4.86793 33.2749 4.87672 33.269 4.87965L32.5396 5.1843C32.5161 5.1638 32.4927 5.15501 32.4693 5.16672L31.9713 5.43916C31.9332 5.45966 31.8951 5.47724 31.8541 5.49189C31.9889 5.09642 31.9801 4.69802 31.8541 4.46953L31.7516 4.28498C31.403 4.29084 31.028 4.39923 30.7732 4.53984C30.5183 4.68045 30.2254 4.93823 30.032 5.22824L30.1346 5.41279C30.2576 5.63836 30.5915 5.86392 30.9958 5.96059C30.9606 5.98695 30.9255 6.01039 30.8874 6.03382L30.3718 6.31797C30.3484 6.32969 30.3455 6.35313 30.3484 6.38535L29.6922 6.84233C29.6922 6.84233 29.6805 6.84233 29.6746 6.84819L29.3407 7.1177L28.4853 6.05433L28.1104 6.35606L29.3319 7.87348C29.4667 8.04045 29.4667 8.15763 29.3846 8.22207" fill="white"/>
<path d="M34.7646 2.25731L34.2983 2.37305L34.9045 4.81528L35.3708 4.69954L34.7646 2.25731Z" fill="white"/>
<path d="M37.66 5.25167C38.2811 5.20773 38.6853 4.82691 38.6472 4.30548L38.5184 2.49512L38.0379 2.53027L38.1668 4.34063C38.1873 4.61306 38.0028 4.79468 37.6278 4.82105C37.2529 4.84741 37.0009 4.67165 36.9804 4.40215C36.9716 4.27325 36.9892 3.9188 37.0332 3.41494L36.5557 3.37979C36.5234 3.76647 36.4883 4.24103 36.5029 4.4373C36.5381 4.95287 37.0332 5.29561 37.66 5.25167Z" fill="white"/>
<path d="M37.655 2.06633L37.1758 2.1001L37.2102 2.5881L37.6894 2.55433L37.655 2.06633Z" fill="white"/>
<path d="M42.0134 3.82255C42.0485 3.67901 42.1071 3.50617 42.1686 3.35385C42.2507 3.36263 42.3444 3.37728 42.4323 3.40072C42.8277 3.49739 42.8922 3.59698 42.7955 3.98952L42.6901 4.426L41.9401 4.24145C41.9548 4.11256 41.9812 3.95437 42.0134 3.82255ZM40.1122 4.38499L41.0027 4.49924C41.0262 4.49924 41.0408 4.48752 41.0555 4.46701L43.3609 5.03238C43.3609 5.05875 43.3697 5.07925 43.3931 5.08804L44.2339 5.40149C44.2485 5.40735 44.2661 5.40149 44.2778 5.3927L45.8304 6.14848L46.0178 5.7618L45.2855 5.40442C45.2562 5.26088 45.2738 5.11148 45.3412 4.96794C45.4759 4.68965 45.7366 4.58419 45.9886 4.70722C46.0647 4.74238 46.135 4.79803 46.2141 4.88299L46.5422 4.59005C46.4338 4.4758 46.2932 4.3762 46.1672 4.31468C45.6898 4.08033 45.1478 4.26489 44.9076 4.75995C44.8432 4.88884 44.808 5.02653 44.7992 5.16714L44.3832 4.96501C44.3627 4.95622 44.3452 4.96501 44.3247 4.97673L43.6099 4.71308C43.6099 4.675 43.5952 4.65156 43.5689 4.64571L43.1529 4.54318L43.2584 4.1067C43.4195 3.45637 43.1588 3.14 42.5319 2.98474C42.236 2.91151 41.9665 2.90272 41.8435 2.91737C41.7644 3.06384 41.6238 3.37728 41.5417 3.71123C41.5066 3.86063 41.4802 4.00417 41.4656 4.1272L41.0379 4.02175C41.0115 4.01589 40.9881 4.03053 40.9705 4.06276L40.1942 3.96316C40.1942 3.96316 40.1825 3.95144 40.1708 3.95144L39.6376 3.92215L39.749 1.84228L39.2685 1.81592L39.1338 4.3264L40.0946 4.37913C40.0946 4.37913 40.1034 4.38499 40.1093 4.38792" fill="white"/>
<path d="M46.4189 3.84278L46.2109 3.74904C46.246 3.67288 46.3193 3.63186 46.3749 3.65823C46.4335 3.68459 46.4511 3.76662 46.4159 3.84278M46.6562 3.95117C46.7499 3.74611 46.6737 3.51469 46.4804 3.42681C46.29 3.34186 46.0703 3.43853 45.9765 3.64358L45.7978 3.56156L45.6895 3.80177L46.5478 4.19138L46.6562 3.9541V3.95117Z" fill="white"/>
<path d="M47.626 7.3465L49.0262 8.47725C49.0057 8.5124 48.9999 8.54169 49.0204 8.5622L49.6385 9.21252C49.6385 9.21252 49.6502 9.21838 49.656 9.22131L50.4294 10.1675C50.4294 10.1675 50.4294 10.1763 50.4294 10.1792L50.9479 10.9116C50.9479 10.9116 50.9538 10.9116 50.9538 10.9145L51.4078 11.6586L52.9399 10.7212L52.6909 10.311L51.525 11.0229L51.3024 10.6567C51.3024 10.6567 51.2965 10.6538 51.2906 10.6509L50.8014 9.96245C50.8014 9.96245 50.8014 9.9478 50.7956 9.93901L50.5261 9.60799L51.5836 8.74382L51.2789 8.37179L50.2214 9.23596L49.9519 8.90494C49.9519 8.90494 49.9343 8.89322 49.9226 8.89029L49.3983 8.33664C49.4246 8.28977 49.4305 8.25168 49.4041 8.23118L49.0702 7.96168L50.3796 6.34172L50.0046 6.04L48.6981 7.65995L47.8955 7.01255C47.5176 6.7079 47.4912 6.58193 47.6465 6.38859C47.7607 6.24505 47.9453 6.10444 48.0595 6.00777L47.749 5.6416C47.6318 5.7412 47.4121 5.90818 47.2715 6.08394C46.9434 6.49112 47.0635 6.90124 47.6201 7.34943" fill="white"/>
<path d="M48.9999 6.74591L48.581 6.40903C48.5869 6.38266 48.6044 6.35923 48.622 6.33579C48.6982 6.24498 48.8154 6.22741 48.9032 6.30064C48.9413 6.32993 48.9618 6.36216 48.9794 6.40317L49.2635 6.31822C49.2343 6.23912 49.161 6.13659 49.0849 6.07508C48.8593 5.89346 48.5429 5.91689 48.3701 6.13074C48.3525 6.15417 48.3379 6.17761 48.3232 6.20104L48.2676 6.1571L48.0889 6.37973L48.8212 6.97147L49.0028 6.74884L48.9999 6.74591Z" fill="white"/>
<path d="M51.8632 7.89409L51.4844 8.20361L51.7883 8.57565L52.1672 8.26612L51.8632 7.89409Z" fill="white"/>
<path d="M50.9772 11.36L50.5596 11.6147L50.8097 12.0249L51.2274 11.7702L50.9772 11.36Z" fill="white"/>
<path d="M26.2152 28.3063C26.6575 27.9548 26.9417 27.8581 27.1907 28.1716C27.4397 28.485 27.2815 28.7428 26.8391 29.0914C26.3997 29.4429 26.1361 29.522 25.8871 29.2086C25.6351 28.8951 25.7728 28.6549 26.2152 28.3063ZM25.5502 29.4781C26.0277 30.0786 26.511 30.0054 27.1584 29.4927C27.8058 28.9771 28.008 28.5055 27.5275 27.905C27.05 27.3045 26.5433 27.3953 25.8959 27.9079C25.2485 28.4206 25.0698 28.8775 25.5473 29.4781" fill="white"/>
<path d="M29.5661 30.0521L28.0663 31.1067L28.9187 29.4809L28.283 28.9243L26.6719 30.761L27.0439 31.0891L28.2918 29.6684L28.3328 29.7035L27.5155 31.3586L27.8876 31.6838L29.4226 30.6614L29.4636 30.6966L28.2157 32.1173L28.5906 32.4454L30.2018 30.6087L29.5661 30.0521Z" fill="white"/>
<path d="M30.7 32.7469L30.1288 32.3983L30.9432 31.5371L31.0896 31.6279L30.6971 32.7469H30.7ZM30.8319 30.9893L29.0918 32.7879L29.5136 33.0457L29.8271 32.7205L30.5565 33.1658L30.41 33.5935L30.8319 33.8513L31.6345 31.4814L30.8319 30.9922V30.9893Z" fill="white"/>
<path d="M32.8412 34.2644L32.8089 34.2498L33.0433 32.167L32.2699 31.8447L31.3267 34.0974L31.7836 34.2878L32.5599 32.4335L32.5951 32.4482L32.3812 34.5368L33.1312 34.8532L34.0744 32.6005L33.6174 32.4101L32.8412 34.2644Z" fill="white"/>
<path d="M35.3402 34.5487L35.806 33.4589L35.9759 33.4912L35.9964 34.6776L35.3402 34.5487ZM35.5072 32.9814L34.4995 35.2722L34.9858 35.3689L35.1674 34.9529L36.0052 35.117L36.0169 35.5681L36.5032 35.6648L36.4329 33.1631L35.5102 32.9814H35.5072Z" fill="white"/>
<path d="M38.0731 34.5253L37.6132 34.5018L37.6513 33.7255L38.1024 33.746C38.3397 33.7578 38.451 33.9189 38.4393 34.1503C38.4276 34.3641 38.3192 34.5311 38.0702 34.5223M38.949 34.1708C38.9754 33.6142 38.6824 33.3535 38.1259 33.3242L37.1767 33.2773L37.0566 35.7175L37.5517 35.7439L37.5927 34.9237L38.0702 34.9471L38.3133 35.779L38.8553 35.8054L38.5536 34.8563C38.782 34.7274 38.9314 34.5077 38.9461 34.1708" fill="white"/>
<path d="M39.8661 34.8709L40.0038 33.6933L40.1737 33.6757L40.5282 34.8065L39.8632 34.868L39.8661 34.8709ZM39.582 33.3183L39.2627 35.8025L39.7578 35.7556L39.8134 35.3074L40.6659 35.2283L40.8036 35.6589L41.2986 35.6121L40.5223 33.2305L39.5849 33.3183H39.582Z" fill="white"/>
<path d="M42.6605 34.8737L42.2211 34.9791L42.0805 34.3991L42.5199 34.2937C42.7103 34.2468 42.848 34.3112 42.8978 34.5046C42.9564 34.7389 42.8597 34.8239 42.6634 34.8737M41.8432 33.4295L42.268 33.327C42.4496 33.283 42.5638 33.3445 42.6107 33.5408C42.6576 33.7283 42.5961 33.8484 42.4086 33.8923L41.978 33.9949L41.8403 33.4295H41.8432ZM42.9505 33.9451C43.1087 33.781 43.1497 33.6287 43.0853 33.3592C42.9739 32.9051 42.6722 32.7938 42.1918 32.911L41.2603 33.1365L41.8344 35.5123L42.7806 35.2838C43.2552 35.1695 43.5012 34.8912 43.387 34.4167C43.3138 34.1091 43.1731 33.989 42.9476 33.9509" fill="white"/>
<path d="M45.6605 33.8044L45.2504 33.9948L45.0014 33.4529L45.4115 33.2625C45.5902 33.1805 45.7366 33.2156 45.8216 33.3972C45.9241 33.6169 45.8479 33.7195 45.6605 33.8044ZM44.8256 33.075L44.5825 32.5477L44.9809 32.3632C45.1508 32.2841 45.2738 32.3221 45.3587 32.5038C45.4408 32.6795 45.4027 32.8084 45.2269 32.8875L44.8256 33.0721V33.075ZM45.7689 32.8377C45.8948 32.6444 45.9036 32.4862 45.7864 32.2343C45.5902 31.8095 45.2709 31.7597 44.8256 31.9677L43.9556 32.369L44.9779 34.5866L45.8626 34.1794C46.3049 33.9743 46.4953 33.655 46.2903 33.2098C46.1585 32.9227 45.9973 32.8319 45.7689 32.8377Z" fill="white"/>
<path d="M47.0399 32.5535L46.621 31.4433L46.7646 31.3496L47.5995 32.1932L47.037 32.5535H47.0399ZM46.0762 31.3056L46.9316 33.6608L47.3505 33.3943L47.1923 32.9695L47.9129 32.5067L48.2322 32.826L48.6511 32.5594L46.87 30.7988L46.0762 31.3056Z" fill="white"/>
<path d="M48.578 29.4165L49.9109 30.9222L49.8845 30.9456L48.1093 29.8295L47.4824 30.3861L49.0994 32.214L49.4715 31.8859L48.1386 30.3802L48.165 30.3568L49.9548 31.4583L50.5671 30.9163L48.9471 29.0884L48.578 29.4165Z" fill="white"/>
<path d="M50.3563 27.4214L49.996 27.8549L50.5379 28.8304L50.3534 29.1058L49.5273 28.4174L49.2109 28.8011L51.0857 30.3625L51.405 29.9817L50.6844 29.3811L50.869 29.1058L51.8796 29.4134L52.2428 28.974L50.9598 28.6136L50.3563 27.4214Z" fill="white"/>
<path d="M18.8417 13.7792C18.8007 13.7617 18.7421 13.7705 18.6835 13.7558C18.6073 13.747 18.54 13.7236 18.4726 13.6972C18.4228 13.6796 18.3788 13.665 18.329 13.6562C18.2031 13.6298 18.0185 13.6064 17.8926 13.5713C17.7168 13.539 17.6494 13.4804 17.5235 13.4365C17.3887 13.3955 17.1895 13.3603 17.005 13.3867C16.92 13.3955 16.8468 13.4189 16.7706 13.4365C16.7208 13.3779 16.6622 13.3193 16.5948 13.293C16.5187 13.2666 16.4367 13.2666 16.3605 13.2607C16.3019 13.2607 16.2521 13.252 16.2023 13.2432C16.1935 13.293 16.1847 13.334 16.1759 13.3867C16.1671 13.4717 16.1759 13.5713 16.2257 13.6386C16.2667 13.6972 16.3517 13.7236 16.4337 13.747C16.4074 13.8378 16.3839 13.9316 16.3576 14.0136C16.2814 14.3153 16.2638 14.6317 16.2404 14.951C16.2169 15.2937 16.1906 15.6453 16.0968 15.9294C16.0383 16.1374 15.9387 16.3161 15.7775 16.4391C15.634 16.5563 15.4582 16.6413 15.1653 16.6647C15.1067 16.6735 15.0393 16.6735 14.9632 16.6735C14.7698 16.6149 14.7464 16.5973 14.72 16.5827C14.5443 16.4567 14.4535 16.2048 14.3099 16.0202C14.1927 15.8708 14.0346 15.7595 13.8676 15.6863C13.642 15.5779 13.3989 15.5281 13.188 15.4109C12.9858 15.3025 12.8276 15.1268 12.6109 14.9598C12.3765 14.784 12.0836 14.617 11.8141 14.5174C11.5299 14.4003 11.278 14.3651 11.07 14.3915C10.8532 14.4237 10.6599 14.5262 10.4753 14.6756C10.1824 14.91 9.88947 15.2615 9.50279 15.4783C9.36804 15.5457 9.21864 15.6042 9.09268 15.6804C8.75873 15.8825 8.53024 16.2253 8.29589 16.5504C8.06153 16.8697 7.8184 17.1773 7.59283 17.5054C7.42586 17.7661 7.25888 18.0415 7.18272 18.3344C7.14171 18.5014 7.13292 18.6772 7.10656 18.8442C7.09777 18.935 7.08898 19.0375 7.08019 19.1283C7.03918 19.2103 7.00403 19.3041 6.9718 19.4037C6.90443 19.6029 6.8722 19.8401 6.94837 20.0306C6.98059 20.1302 7.04797 20.2239 7.11534 20.3147C7.2003 20.2385 7.28232 20.1565 7.34091 20.0628C7.39949 19.9778 7.43465 19.8782 7.44929 19.7786C7.47566 19.6702 7.46687 19.5531 7.44929 19.4359C7.42293 19.3421 7.39949 19.2513 7.38192 19.1605C7.34969 19.0023 7.35555 18.8412 7.38192 18.6742C7.43172 18.3989 7.53132 18.1294 7.71587 17.9214C7.77446 17.854 7.84183 17.7866 7.90921 17.7193V18.0972C7.90921 18.4985 7.90921 18.8998 7.92678 19.3187C7.94436 19.5853 7.95901 19.8724 7.87698 20.1126C7.79203 20.3557 7.61627 20.5578 7.45808 20.7658C7.36434 20.8918 7.27353 21.0178 7.18858 21.1349C7.18858 21.2023 7.17979 21.2697 7.17979 21.3371C7.17979 21.5626 7.23838 21.7882 7.26474 22.0167C7.29111 22.2335 7.28232 22.459 7.28232 22.6787C7.27353 22.7959 7.27353 22.9131 7.25009 23.0302C7.22373 23.1064 7.19151 23.1884 7.20908 23.2646C7.21787 23.3144 7.24131 23.3554 7.28525 23.3906C7.29404 23.4081 7.31161 23.4169 7.32626 23.4228C7.32626 23.455 7.32626 23.4814 7.31747 23.5165C7.30868 23.5839 7.28232 23.6571 7.27646 23.7245C7.26767 23.8007 7.28525 23.8739 7.30282 23.9501H8.27538C8.26659 23.9237 8.2578 23.8915 8.24316 23.8681C8.21679 23.8095 8.17578 23.7597 8.12598 23.7157C8.04982 23.6659 7.95901 23.6308 7.90042 23.5663C7.85941 23.5341 7.83304 23.4814 7.80961 23.4316C7.8184 23.414 7.83597 23.3993 7.84183 23.373C7.8682 23.3232 7.8682 23.2734 7.85941 23.2148C7.83304 23.1152 7.75981 23.039 7.71587 22.9453C7.6397 22.7695 7.69829 22.5615 7.73344 22.3594C7.76567 22.1163 7.75102 21.8819 7.78324 21.6564C7.82425 21.3722 7.94143 21.0881 8.11719 20.8537C8.25194 20.6867 8.41013 20.5432 8.57711 20.4114C8.82903 20.2092 9.08682 20.01 9.3241 19.7845C9.54087 19.5677 9.743 19.3334 9.86018 19.0639C9.96857 18.8207 10.0096 18.5541 10.0535 18.2846C10.0711 18.519 10.0711 18.7446 10.0447 18.9701C10.0711 18.9877 10.0945 19.0023 10.1297 19.0111C10.405 19.1459 10.698 19.2367 10.9997 19.2953C11.5944 19.4125 12.2154 19.3949 12.7925 19.1283C12.8013 19.2103 12.8247 19.2865 12.8599 19.3627C12.9097 19.7142 12.9009 19.8812 12.8774 20.0481C12.8511 20.2561 12.8013 20.4582 12.7778 20.6662C12.7603 20.801 12.7515 20.9328 12.7456 21.0676C12.728 21.2755 12.7046 21.4865 12.6958 21.6944C12.687 21.9962 12.6958 22.3067 12.687 22.6143C12.6782 22.7314 12.6695 22.8574 12.6607 22.9658C12.6431 23.0566 12.6343 23.1416 12.6109 23.2353C12.5933 23.3027 12.5786 23.3701 12.5933 23.4286C12.6021 23.4872 12.6431 23.5458 12.6841 23.6044C12.6753 23.6542 12.6665 23.7128 12.6519 23.7626C12.6431 23.7948 12.6255 23.83 12.6197 23.871C12.6197 23.8973 12.6284 23.9208 12.6372 23.9471H13.8031C13.8119 23.9149 13.8207 23.8798 13.8031 23.8563C13.7943 23.8065 13.7533 23.7743 13.7094 23.7479C13.6508 23.6981 13.5834 23.663 13.5248 23.622C13.4663 23.5898 13.3989 23.5546 13.3403 23.5224C13.3403 23.4814 13.3491 23.4404 13.3491 23.4052C13.3579 23.329 13.3491 23.2617 13.3227 23.1943C13.2905 23.0859 13.2143 22.9951 13.1733 22.8926C13.1147 22.7578 13.1059 22.6084 13.1147 22.4561C13.1323 22.1133 13.2231 21.7853 13.2641 21.4513C13.2817 21.2755 13.2963 21.0998 13.3051 20.924C13.3227 20.7307 13.3461 20.5373 13.4047 20.3557C13.4633 20.1214 13.5717 19.8958 13.7826 19.6439C13.9086 19.5091 14.0346 19.3773 14.1429 19.2338C14.3099 18.9994 14.4447 18.7475 14.5706 18.4897C14.7054 18.4809 14.8372 18.4721 14.972 18.4633C15.3498 18.437 15.7336 18.4047 16.1027 18.27C16.4718 18.1352 16.8233 17.8921 17.0577 17.5757C17.3096 17.2242 17.418 16.7789 17.4766 16.3366C17.544 15.7742 17.5176 15.2234 17.4942 14.6698C17.6025 14.702 17.7109 14.7372 17.8135 14.7284C17.9072 14.7284 17.9892 14.6961 18.0742 14.6346C18.1503 14.5848 18.2177 14.5087 18.2997 14.4852C18.3847 14.453 18.4755 14.4676 18.5692 14.4852C18.6688 14.5116 18.7772 14.535 18.8446 14.4852C18.8768 14.4618 18.9032 14.4178 18.9296 14.368C18.912 14.3505 18.8944 14.3358 18.8798 14.327C18.83 14.2948 18.7802 14.2684 18.7216 14.2684C18.704 14.2597 18.6806 14.2597 18.663 14.2509C18.6542 14.2509 18.6454 14.2421 18.6366 14.2333C18.6688 14.2157 18.6952 14.1923 18.7304 14.1923C18.7802 14.1835 18.83 14.2333 18.8798 14.2597C18.9208 14.286 18.9647 14.286 19.0145 14.286C19.0409 14.286 19.0643 14.286 19.0995 14.2772C19.117 14.2509 19.1258 14.2187 19.1258 14.1864C19.1258 14.1454 19.1083 14.1015 19.0936 14.0605C19.0438 13.9433 18.9676 13.8085 18.8505 13.7763" fill="white"/>
<path d="M16.1526 23.8154C16.1116 23.7744 15.968 23.6221 15.8919 23.5899C15.8069 23.5488 15.7337 23.5137 15.6575 23.4727C15.6575 23.4639 15.6663 23.4551 15.6663 23.4405C15.6839 23.3994 15.6839 23.3496 15.6575 23.3145C15.6487 23.2881 15.6253 23.2735 15.5989 23.2559C15.5316 23.2237 15.4554 23.1797 15.3968 23.1299C15.2474 22.9952 15.1625 22.796 15.0951 22.5939C15.0101 22.3273 14.9516 22.0578 14.9603 21.7824C14.9603 21.6155 14.9867 21.4397 14.9779 21.2639C14.9603 21.0882 14.9105 20.9124 14.852 20.7366C14.7524 20.4525 14.6264 20.1683 14.559 19.8666C14.5092 19.6498 14.4829 19.4301 14.4916 19.2046C14.4916 19.1372 14.4916 19.0698 14.5004 19.0024C14.4829 19.0347 14.4682 19.0698 14.4418 19.0962C14.4243 19.1372 14.4008 19.1811 14.3745 19.2134C14.351 19.2456 14.3247 19.2807 14.2983 19.313C14.2807 19.3393 14.2661 19.354 14.2573 19.3803C14.2397 19.3979 14.2251 19.4155 14.2075 19.4389C14.1753 19.4799 14.1401 19.5151 14.1079 19.5561C14.0405 19.6323 13.9731 19.6996 13.9058 19.7729C13.938 19.8813 13.9731 19.9809 13.9907 20.0922C14.0405 20.3353 14.0405 20.5872 14.0757 20.8362C14.1255 21.2053 14.2339 21.5657 14.4038 21.8996C14.5473 22.1662 14.7231 22.4093 14.7963 22.6935C14.8373 22.878 14.8373 23.0714 14.8285 23.253C14.8285 23.3614 14.8197 23.4639 14.8022 23.5635C14.8109 23.5899 14.8109 23.6221 14.8285 23.6397C14.8461 23.6807 14.8783 23.707 14.9135 23.7158C14.9457 23.7246 14.9808 23.7158 15.0131 23.7158C15.0043 23.748 14.9955 23.7832 14.9808 23.8096C14.9721 23.8359 14.9633 23.8594 14.9633 23.8857C14.9633 23.918 14.9721 23.9531 14.9808 23.9853L16.179 23.9765C16.1878 23.9443 16.1965 23.9092 16.1878 23.8857C16.179 23.8594 16.1702 23.8359 16.1555 23.8184" fill="white"/>
<path d="M10.5489 23.7159C10.4815 23.6836 10.4141 23.6573 10.3468 23.6309C10.2794 23.6133 10.1856 23.5635 10.1095 23.5547C10.1183 23.5137 10.1446 23.5049 10.1446 23.4551C10.1358 23.3878 10.1271 23.3116 10.086 23.253C10.045 23.212 9.98645 23.1856 9.92786 23.1534C9.82826 23.086 9.76089 22.9777 9.69351 22.8693C9.50017 22.5588 9.30683 22.2512 9.22481 21.9143C9.20137 21.7795 9.1838 21.6389 9.17501 21.4954C9.15743 21.261 9.16622 21.0267 9.22481 20.8099C9.31855 20.4994 9.54411 20.2328 9.69351 19.9662C9.78725 19.7993 9.84291 19.6382 9.88685 19.3804C9.79311 19.5151 9.69351 19.6411 9.59391 19.7583C9.37714 20.0014 9.11642 20.2094 8.85571 20.4115C8.77075 20.4789 8.68873 20.5375 8.59499 20.6049C8.61257 20.7894 8.59499 20.974 8.5364 21.1409C8.4866 21.2757 8.41044 21.3929 8.41044 21.5188C8.40165 21.6448 8.46903 21.7707 8.55398 21.8879C8.64479 22.0227 8.75611 22.1399 8.85571 22.2658C9.07248 22.5265 9.25703 22.8341 9.39179 23.1534C9.42401 23.2296 9.45916 23.3116 9.45037 23.3966C9.44158 23.4727 9.41815 23.5635 9.44158 23.6075C9.46502 23.6514 9.54118 23.6573 9.60856 23.6748C9.59098 23.7422 9.56755 23.8155 9.57634 23.8828C9.57634 23.9092 9.57634 23.9326 9.58512 23.959H10.7334C10.7334 23.9092 10.7247 23.8653 10.7012 23.833C10.6661 23.7832 10.6075 23.7569 10.5518 23.7246" fill="white"/>
<path d="M38.7031 10.0914C38.7031 10.0914 38.7676 10.0856 38.7676 10.0533C38.7676 10.0533 38.7822 9.97132 38.7295 9.94495C38.7295 9.94495 38.7002 9.9303 38.6709 9.95374C38.6709 9.95374 38.6709 10.0299 38.6562 10.0651C38.6562 10.0651 38.6709 10.0943 38.7031 10.0914Z" fill="white"/>
<path d="M91.7104 26.833C91.2564 27.3486 90.6969 27.6093 90.029 27.6093C89.4489 27.6093 88.9422 27.4072 88.5057 27.0029C88.0018 26.5313 87.7499 25.9483 87.7499 25.2541C87.7499 24.6477 87.9462 24.1233 88.3358 23.6751C88.7898 23.1508 89.3523 22.89 90.029 22.89C90.6148 22.89 91.1216 23.0951 91.5522 23.5052C92.0502 23.971 92.2992 24.5539 92.2992 25.2541C92.2992 25.8517 92.103 26.3789 91.7134 26.833M91.6723 22.4184C91.1626 22.1225 90.6148 21.9731 90.029 21.9731C89.4431 21.9731 88.8953 22.1225 88.3826 22.4184C87.8905 22.7143 87.498 23.1097 87.2021 23.599C86.9062 24.1145 86.7568 24.6682 86.7568 25.2541C86.7568 25.8399 86.9062 26.3877 87.2109 26.8974C87.5009 27.3954 87.8905 27.788 88.3826 28.078C88.8924 28.3797 89.4431 28.532 90.029 28.532C90.6148 28.532 91.1626 28.3797 91.6723 28.078C92.1645 27.788 92.5541 27.3954 92.8441 26.8974C93.1458 26.3877 93.2982 25.8399 93.2982 25.2541C93.2982 24.6682 93.1458 24.1175 92.8441 23.599C92.5541 23.1068 92.1645 22.7143 91.6723 22.4184Z" fill="white"/>
<path d="M97.4284 25.9337L95.2753 22.0962H94.3203V28.4002H95.3016V23.9476L97.0417 27.0498H97.818L99.5551 23.9476V28.4002H100.539V22.0962H99.5844L97.4284 25.9337Z" fill="white"/>
<path d="M103.167 25.8663L104.19 23.1156L105.2 25.8663H103.167ZM103.583 22.0962L101.21 28.4002H102.242L102.836 26.7744H105.54L106.135 28.4002H107.175L104.793 22.0962H103.583Z" fill="white"/>
<path d="M112.195 26.7363L108.727 22.0962H107.866V28.4002H108.847V23.7601L112.31 28.4002H113.177V22.0962H112.195V26.7363Z" fill="white"/>
<path d="M118.066 25.8663L119.086 23.1156L120.096 25.8663H118.063H118.066ZM118.482 22.0962L116.109 28.4002H117.141L117.735 26.7744H120.439L121.034 28.4002H122.074L119.692 22.0962H118.482Z" fill="white"/>
<path d="M125.135 24.9021C124.932 25.0163 124.634 25.072 124.235 25.072H123.743V22.9921H124.235C124.625 22.9921 124.921 23.0478 125.123 23.162C125.43 23.3378 125.586 23.6307 125.586 24.0408C125.586 24.4509 125.433 24.7292 125.132 24.9021M126.259 25.0807C126.456 24.779 126.552 24.4363 126.552 24.0496C126.552 23.7215 126.479 23.4198 126.336 23.1415C126.166 22.8134 125.925 22.5615 125.618 22.3857C125.278 22.1894 124.792 22.0928 124.162 22.0928H122.762V28.3968H123.746V25.9566H124.162C124.288 25.9566 124.437 25.9508 124.607 25.9391L125.969 28.3968H127.065L125.562 25.7018C125.852 25.5494 126.084 25.3415 126.262 25.0778" fill="white"/>
<path d="M129.426 25.8663L130.445 23.1156L131.456 25.8663H129.423H129.426ZM129.842 22.0962L127.469 28.4002H128.5L129.095 26.7744H131.799L132.394 28.4002H133.433L131.052 22.0962H129.842Z" fill="white"/>
<path d="M136.621 27.3427C136.43 27.4482 136.149 27.5038 135.771 27.5038H135.071V25.6027H135.686C136.129 25.6027 136.448 25.6583 136.65 25.7726C136.782 25.8487 136.887 25.9571 136.966 26.0977C137.046 26.2383 137.084 26.3936 137.084 26.5547C137.084 26.9092 136.928 27.1699 136.621 27.3398M135.071 22.9838H135.619C136.079 22.9838 136.386 23.06 136.545 23.2123C136.72 23.3822 136.808 23.599 136.808 23.8655C136.808 24.2112 136.668 24.4661 136.384 24.6301C136.225 24.7121 135.971 24.7531 135.619 24.7531H135.071V22.9838ZM137.16 25.0549C137.549 24.7033 137.746 24.2962 137.746 23.8362C137.746 23.5404 137.67 23.2592 137.52 22.9955C137.368 22.7319 137.166 22.5268 136.914 22.3803C136.592 22.1899 136.126 22.0962 135.514 22.0962H134.104V28.4002H135.815C136.357 28.4002 136.788 28.3124 137.11 28.1366C137.412 27.9667 137.643 27.747 137.804 27.4804C137.965 27.2138 138.045 26.915 138.045 26.5869C138.045 26.2589 137.974 25.9864 137.837 25.7257C137.678 25.4298 137.453 25.2072 137.157 25.0549" fill="white"/>
<path d="M143.833 27.3427C143.642 27.4482 143.361 27.5038 142.983 27.5038H142.283V25.6027H142.898C143.341 25.6027 143.66 25.6583 143.862 25.7726C143.994 25.8487 144.099 25.9571 144.178 26.0977C144.258 26.2383 144.296 26.3936 144.296 26.5547C144.296 26.9092 144.14 27.1699 143.833 27.3398M142.283 22.9838H142.831C143.291 22.9838 143.598 23.06 143.757 23.2123C143.932 23.3822 144.02 23.599 144.02 23.8655C144.02 24.2112 143.88 24.4661 143.595 24.6301C143.437 24.7121 143.182 24.7531 142.831 24.7531H142.283V22.9838ZM144.372 25.0549C144.761 24.7033 144.958 24.2962 144.958 23.8362C144.958 23.5404 144.881 23.2592 144.732 22.9955C144.58 22.7319 144.378 22.5268 144.126 22.3803C143.803 22.1899 143.338 22.0962 142.725 22.0962H141.316V28.4002H143.027C143.569 28.4002 144 28.3124 144.322 28.1366C144.624 27.9667 144.855 27.747 145.016 27.4804C145.177 27.2138 145.256 26.915 145.256 26.5869C145.256 26.2589 145.186 25.9864 145.048 25.7257C144.89 25.4298 144.665 25.2072 144.369 25.0549" fill="white"/>
<path d="M147.454 25.8663L148.473 23.1156L149.484 25.8663H147.451H147.454ZM147.87 22.0962L145.497 28.4002H146.528L147.123 26.7744H149.827L150.421 28.4002H151.461L149.08 22.0962H147.87Z" fill="white"/>
<path d="M156.482 26.7363L153.014 22.0962H152.152V28.4002H153.137V23.7601L156.596 28.4002H157.466V22.0962H156.482V26.7363Z" fill="white"/>
<path d="M162.438 22.0962L159.828 24.9406V22.0962H158.846V28.4002H159.828V26.2559L160.548 25.4708L162.493 28.4002H163.647L161.207 24.7531L163.647 22.0962H162.438Z" fill="white"/>
<path d="M89.0683 20.4555C89.1796 20.3471 89.2323 20.2211 89.2323 20.0776C89.2323 19.934 89.1767 19.8081 89.0683 19.6997C88.9569 19.5913 88.831 19.5386 88.6845 19.5386C88.538 19.5386 88.4121 19.5913 88.3008 19.6997C88.1894 19.8081 88.1338 19.9311 88.1338 20.0776C88.1338 20.2241 88.1894 20.3471 88.3008 20.4555C88.4121 20.5639 88.538 20.6166 88.6845 20.6166C88.831 20.6166 88.9569 20.5639 89.0683 20.4555Z" fill="white"/>
<path d="M90.3188 20.4555C90.4242 20.3471 90.4799 20.2211 90.4799 20.0776C90.4799 19.934 90.4271 19.8081 90.3188 19.6997C90.2104 19.5913 90.0815 19.5386 89.9321 19.5386C89.7827 19.5386 89.6596 19.5913 89.5483 19.6997C89.437 19.8081 89.3843 19.9311 89.3843 20.0776C89.3843 20.2241 89.4399 20.3471 89.5483 20.4555C89.6596 20.5639 89.7856 20.6166 89.9321 20.6166C90.0785 20.6166 90.2133 20.5639 90.3188 20.4555Z" fill="white"/>
<path d="M94.9034 17.0543H95.0177C95.5538 17.0543 95.9785 16.9195 96.2949 16.6471C96.6728 16.319 96.8632 15.8151 96.8632 15.1355V13.0264H95.9287V14.9656C95.9287 15.7536 95.5977 16.1462 94.9357 16.1462H90.4068V17.0543H91.2944C91.2681 17.3706 91.0806 17.6226 90.7261 17.8101C90.3658 18.0063 89.9118 18.103 89.364 18.103C88.7664 18.103 88.2918 17.9536 87.9461 17.6577C87.58 17.3414 87.3983 16.9254 87.3983 16.4098C87.3983 16.0261 87.5067 15.6306 87.7206 15.2293L86.9648 14.9363C86.6572 15.3962 86.502 15.9147 86.502 16.486C86.502 17.192 86.7099 17.7603 87.1259 18.1879C87.6239 18.6977 88.3445 18.9525 89.2907 18.9525C90.1227 18.9525 90.7964 18.8002 91.3149 18.4985C91.8891 18.1587 92.1879 17.6753 92.2143 17.0513H94.9093L94.9034 17.0543Z" fill="white"/>
<path d="M95.8027 17.7632C95.6562 17.7632 95.5302 17.8159 95.4189 17.9243C95.3076 18.0327 95.2549 18.1587 95.2549 18.3022C95.2549 18.4457 95.3105 18.5717 95.4189 18.6801C95.5302 18.7855 95.6562 18.8412 95.8027 18.8412C95.9491 18.8412 96.0751 18.7885 96.1864 18.6801C96.2977 18.5717 96.3505 18.4457 96.3505 18.3022C96.3505 18.1587 96.2948 18.0327 96.1864 17.9243C96.0751 17.8188 95.9491 17.7632 95.8027 17.7632Z" fill="white"/>
<path d="M106.853 15.086C106.612 15.3584 106.437 15.543 106.322 15.6455C106.214 15.543 106.07 15.3936 105.889 15.1914C105.49 14.7432 105.183 14.4444 104.963 14.2921C105.347 13.8761 105.789 13.6682 106.287 13.6682C106.841 13.6682 107.312 13.8791 107.696 14.3009C107.476 14.4386 107.195 14.7022 106.855 15.086M112.468 14.9659C112.468 15.7539 112.137 16.1493 111.475 16.1493H107.655C107.503 16.1493 107.324 16.1142 107.116 16.0439C107.172 15.9794 107.242 15.9033 107.324 15.8095C107.69 15.3731 107.96 15.0831 108.136 14.9395C108.311 14.796 108.502 14.7052 108.701 14.6759V14.2599C108.431 13.8322 108.095 13.4924 107.69 13.2405C107.254 12.9768 106.8 12.8421 106.319 12.8421C105.898 12.8421 105.496 12.9417 105.118 13.135C104.647 13.3811 104.254 13.7531 103.947 14.2511V14.6759C104.166 14.7257 104.395 14.8516 104.632 15.0508C104.869 15.25 105.174 15.5781 105.555 16.038C105.347 16.1142 105.151 16.1523 104.969 16.1523H101.14C100.484 16.1523 100.159 15.7568 100.159 14.9688V13.0325H99.2215V16.8231C99.2215 17.1893 99.1394 17.4764 98.9754 17.6843C98.8055 17.9099 98.5565 18.0242 98.2284 18.0242C97.9823 18.0242 97.707 17.948 97.4052 17.7957L97.1592 18.5339C97.5957 18.7536 98.0175 18.8649 98.4247 18.8649C98.8963 18.8649 99.283 18.7243 99.5788 18.4401C99.9304 18.1003 100.115 17.6023 100.127 16.9461V16.8143C100.384 16.9784 100.698 17.0604 101.064 17.0604H105.233C105.622 17.0604 105.991 16.9461 106.337 16.7206C106.671 16.9461 107.028 17.0604 107.406 17.0604H111.557C112.093 17.0604 112.518 16.9256 112.834 16.6532C113.212 16.3251 113.4 15.8213 113.4 15.1416V10.7651H112.465V14.9717L112.468 14.9659Z" fill="white"/>
<path d="M115.936 10.7593H114.99V17.0545H115.936V10.7593Z" fill="white"/>
<path d="M122.038 13.1786C122.15 13.0732 122.203 12.9443 122.203 12.8007C122.203 12.6572 122.147 12.5312 122.038 12.4228C121.927 12.3144 121.801 12.2617 121.655 12.2617C121.508 12.2617 121.382 12.3144 121.271 12.4228C121.16 12.5312 121.104 12.6572 121.104 12.8007C121.104 12.9443 121.16 13.0732 121.271 13.1786C121.382 13.287 121.508 13.3397 121.655 13.3397C121.801 13.3397 121.927 13.287 122.038 13.1786Z" fill="white"/>
<path d="M119.803 14.9363C119.496 15.3962 119.34 15.9089 119.34 16.4772C119.34 17.1656 119.54 17.7192 119.935 18.1411C120.383 18.6186 121.004 18.8588 121.798 18.8588C122.51 18.8588 123.087 18.6684 123.526 18.2905C124.051 17.8423 124.311 17.1978 124.311 16.3512V13.0234H123.374V16.3424C123.374 16.8346 123.231 17.2242 122.941 17.5142C122.645 17.8042 122.264 17.9477 121.798 17.9477C121.332 17.9477 120.966 17.8159 120.682 17.5523C120.386 17.2623 120.237 16.8785 120.237 16.3981C120.237 16.0202 120.336 15.6306 120.538 15.2263L119.8 14.9334L119.803 14.9363Z" fill="white"/>
<path d="M142.316 9.90083C142.453 9.90083 142.524 9.98579 142.524 10.1557C142.524 10.3256 142.456 10.4457 142.325 10.4955C142.187 10.4311 142.117 10.3168 142.117 10.1469C142.117 9.977 142.184 9.90083 142.316 9.90083ZM140.907 11.263L142.231 11.0257C142.439 10.9935 142.612 10.8968 142.746 10.7328C142.881 10.5687 142.949 10.3783 142.949 10.1557C142.949 9.95356 142.887 9.78952 142.764 9.66062C142.641 9.53173 142.486 9.46729 142.295 9.46729C142.119 9.46729 141.97 9.53173 141.85 9.66062C141.73 9.78952 141.671 9.9477 141.671 10.1381C141.671 10.3139 141.73 10.4721 141.85 10.6097L140.828 10.8002L140.904 11.263H140.907Z" fill="white"/>
<path d="M132.669 14.1134C132.827 13.8674 133.056 13.7443 133.361 13.7443C133.624 13.7443 133.832 13.8381 133.985 14.0285C134.166 14.2423 134.26 14.5616 134.26 14.9835C134.26 15.4053 134.178 15.7217 134.014 15.9472C133.85 16.1757 133.636 16.287 133.369 16.287C133.138 16.287 132.942 16.2021 132.783 16.0322C132.57 15.8066 132.461 15.4551 132.461 14.9835C132.461 14.6173 132.532 14.3273 132.669 14.1134ZM125.899 10.7593V15.2969C125.899 15.8388 126.034 16.2577 126.307 16.5536C126.614 16.8876 127.083 17.0545 127.707 17.0545H130.865C131.357 17.0545 131.738 16.8905 132.007 16.5624C132.309 16.9784 132.76 17.1864 133.358 17.1864C133.955 17.1864 134.395 16.9784 134.708 16.5624C134.998 16.8905 135.379 17.0545 135.851 17.0545H144.179V16.1464H142.081C141.73 16.1464 141.443 16.0351 141.22 15.8154C140.986 15.5869 140.872 15.3028 140.872 14.9542C140.872 14.6641 140.954 14.4181 141.118 14.216C141.326 13.964 141.619 13.8381 141.996 13.8381H143.461V12.9505H141.826C141.308 12.9505 140.877 13.1145 140.532 13.4426C140.127 13.8146 139.928 14.3097 139.928 14.9278C139.928 15.3936 140.057 15.8008 140.315 16.1464H136.061C135.464 16.1464 135.162 15.7656 135.162 15.001C135.162 14.6349 135.112 14.3156 135.01 14.0373C134.878 13.6975 134.688 13.4279 134.442 13.2346C134.14 13.0003 133.777 12.886 133.355 12.886C132.983 12.886 132.658 12.9768 132.382 13.1584C132.072 13.3606 131.846 13.6564 131.703 14.046C131.6 14.3243 131.55 14.6407 131.55 15.001C131.55 15.7627 131.251 16.1464 130.651 16.1464H127.833C127.455 16.1464 127.191 16.0615 127.039 15.8916C126.901 15.7334 126.831 15.4463 126.831 15.0303V10.7563H125.896L125.899 10.7593Z" fill="white"/>
<path d="M150.204 13.2728H149.288L149.279 13.6975H150.243C150.462 13.6975 150.638 13.636 150.767 13.513C150.896 13.3899 150.96 13.223 150.96 13.0062C150.96 12.7806 150.893 12.599 150.761 12.4672C150.629 12.3354 150.439 12.2621 150.193 12.2504L150.685 11.6821L150.392 11.4448L149.581 12.3441V12.7513C149.739 12.6693 149.903 12.6283 150.073 12.6283C150.21 12.6283 150.322 12.6605 150.404 12.7279C150.486 12.7953 150.527 12.8832 150.527 12.9974C150.527 13.179 150.418 13.2728 150.204 13.2728Z" fill="white"/>
<path d="M157.73 11.3716C157.619 11.48 157.563 11.6059 157.563 11.7495C157.563 11.893 157.619 12.0219 157.73 12.1273C157.841 12.2357 157.967 12.2885 158.114 12.2885C158.26 12.2885 158.395 12.2357 158.5 12.1273C158.606 12.019 158.662 11.893 158.662 11.7495C158.662 11.6059 158.609 11.48 158.5 11.3716C158.392 11.2632 158.263 11.2104 158.114 11.2104C157.964 11.2104 157.841 11.2632 157.73 11.3716Z" fill="white"/>
<path d="M162.965 14.9659C162.965 15.7539 162.634 16.1493 161.972 16.1493H159.558C158.896 16.1493 158.565 15.7539 158.565 14.9659V13.0296H157.63V14.9659C157.63 15.7539 157.299 16.1493 156.637 16.1493H154.352C153.69 16.1493 153.359 15.7539 153.359 14.9659V10.7593H152.425V14.9659C152.425 15.3379 152.349 15.6191 152.199 15.8066C152.018 16.0322 151.713 16.1464 151.291 16.1464H148.74C148.367 16.1464 148.06 16.038 147.814 15.8242C147.556 15.5928 147.427 15.2998 147.427 14.9542C147.427 14.7139 147.495 14.4942 147.629 14.2921C147.764 14.09 147.952 13.9318 148.192 13.8205L147.776 13.1877C147.41 13.3401 147.12 13.5715 146.906 13.8879C146.68 14.216 146.566 14.588 146.566 15.004C146.566 15.5342 146.718 15.9765 147.02 16.3368C147.418 16.8172 148.01 17.0545 148.798 17.0545H151.473C152.123 17.0545 152.6 16.8553 152.908 16.4599C153.21 16.8553 153.667 17.0545 154.279 17.0545H156.725C157.343 17.0545 157.803 16.8553 158.105 16.4599C158.406 16.8553 158.866 17.0545 159.485 17.0545H162.059C162.596 17.0545 163.02 16.9198 163.337 16.6473C163.715 16.3193 163.905 15.8154 163.905 15.1358V13.0266H162.97V14.9629L162.965 14.9659Z" fill="white"/>
<path d="M162.842 18.8412C162.985 18.8412 163.114 18.7885 163.225 18.6801C163.337 18.5717 163.392 18.4457 163.392 18.3022C163.392 18.1587 163.337 18.0327 163.225 17.9243C163.114 17.8159 162.988 17.7632 162.842 17.7632C162.695 17.7632 162.569 17.8159 162.458 17.9243C162.347 18.0327 162.291 18.1587 162.291 18.3022C162.291 18.4457 162.347 18.5717 162.458 18.6801C162.569 18.7855 162.695 18.8412 162.842 18.8412Z" fill="white"/>
</g>
<defs>
<clipPath id="clip0_4408_45465">
<rect width="163.902" height="38" fill="white"/>
</clipPath>
</defs>
</svg>
